<svg fill="none" height="100%" width="100%" viewBox="0 0 144 105" xmlns:xlink="http://www.w3.org/1999/xlink" xmlns="http://www.w3.org/2000/svg"><g transform="matrix(1,0,0,1,36,42)" id="i0"><g id="i1"><g transform="translate(63,9)"><animateTransform repeatCount="indefinite" type="translate" attributeName="transform" dur="1.833s" begin="0s" calcMode="spline" values="63 9; 63 9; 63 10; 63 -9; 63 13.139; 63 9; 63 9" keyTimes="0; 0.194391; 0.236027; 0.347127; 0.450854; 0.509091; 1" keySplines="0 0 1 1; 0.333 0 0.667 1; 0.333 0 0.667 1; 0.333 0 0.667 1; 0.333 0 0.667 1; 0 0 1 1" fill="freeze" /><g transform="scale(1,1) translate(0,0)"><g id="i1" transform="matrix(3,0,0,3,0,0)"><ellipse ry="3" rx="3" cy="0" cx="0" fill="#b0b9c0"><animate repeatCount="indefinite" attributeName="fill" dur="1.833s" begin="0s" fill="freeze" values="#b0b9c0; #b0b9c0; #59646d; #b0b9c0; #b0b9c0" keyTimes="0; 0.194391; 0.333236; 0.485973; 1" keySplines="0 0 1 1; 1 0 0.472 1; 1 0 0.49 1; 0 0 1 1" calcMode="spline" /></ellipse></g></g></g></g></g><g transform="matrix(1,0,0,1,36,42)" id="i0"><g id="i2"><g transform="translate(36,9)"><animateTransform repeatCount="indefinite" type="translate" attributeName="transform" dur="1.833s" begin="0s" calcMode="spline" values="36 9; 36 9; 36 10; 36 -9; 36 14.326; 36 9; 36 9" keyTimes="0; 0.097191; 0.138845; 0.236027; 0.336218; 0.399751; 1" keySplines="0 0 1 1; 0.333 0 0.667 1; 0.333 0 0.667 1; 0.333 0 0.667 1; 0.333 0 0.667 1; 0 0 1 1" fill="freeze" /><g transform="scale(1,1) translate(0,0)"><g id="i2" transform="matrix(3,0,0,3,0,0)"><ellipse ry="3" rx="3" cy="0" cx="0" fill="#b0b9c0"><animate repeatCount="indefinite" attributeName="fill" dur="1.833s" begin="0s" fill="freeze" values="#b0b9c0; #b0b9c0; #59646d; #b0b9c0; #b0b9c0" keyTimes="0; 0.097191; 0.236027; 0.388761; 1" keySplines="0 0 1 1; 1 0 0.472 1; 1 0 0.49 1; 0 0 1 1" calcMode="spline" /></ellipse></g></g></g></g></g><g transform="matrix(1,0,0,1,36,42)" id="i0"><g id="i3"><g transform="translate(9,9)"><animateTransform repeatCount="indefinite" type="translate" attributeName="transform" dur="1.833s" begin="0s" calcMode="spline" values="9 9; 9 10; 9 -9; 9 12; 9 9; 9 9" keyTimes="0; 0.027755; 0.138846; 0.228855; 0.297674; 1" keySplines="0.333 0 0.667 1; 0.333 0 0.667 1; 0.333 0 0.667 1; 0.333 0 0.667 1; 0 0 1 1" fill="freeze" /><g transform="scale(1,1) translate(0,0)"><g id="i3" transform="matrix(3,0,0,3,0,0)"><ellipse ry="3" rx="3" cy="0" cx="0" fill="#b0b9c0"><animate repeatCount="indefinite" attributeName="fill" dur="1.833s" begin="0s" fill="freeze" values="#b0b9c0; #59646d; #b0b9c0; #b0b9c0" keyTimes="0; 0.138846; 0.291566; 1" keySplines="1 0 0.472 1; 1 0 0.49 1; 0 0 1 1" calcMode="spline" /></ellipse></g></g></g></g></g><g transform="matrix(1,0,0,1,36,42)" id="i0" /></svg>